<?xml version="1.0" standalone="no"?><!DOCTYPE svg PUBLIC "-//W3C//DTD SVG 1.1//EN" "http://www.w3.org/Graphics/SVG/1.1/DTD/svg11.dtd"><svg class="icon" width="200px" height="200.00px" viewBox="0 0 1024 1024" version="1.1" xmlns="http://www.w3.org/2000/svg"><path  d="M233.291 667c0 17.106 13.932 31.5 31.102 31.5h177.299c0-21 2.859-42 6.282-63h-183.58c-17.17 0-31.103 14.394-31.103 31.5zM533.265 448.5H264.394c-17.17 0-31.102 14.83-31.102 32s13.932 32 31.102 32H488.16c13.006-27.5 27.935-49 45.105-64zM886.5 12.5H139.977C71.73 12.5 11.5 72.442 11.5 140.749v742.167c0 68.244 59.426 129.584 127.669 129.584H553.5c53 0 53-64 0-64H139.221c-34.153 0-63.721-31.43-63.721-65.584V140.749c0-34.153 30.382-70.249 64.473-70.249h746.523c34.154 0 60.88 32 60.88 68h0.125v242c0 42 64 42 64 0V135.649C1011.5 67.342 954.806 12.5 886.5 12.5zM793.176 292c0-17.17-13.996-29.5-31.103-29.5h-497.68c-17.17 0-31.102 12.33-31.102 29.5s13.932 29.5 31.102 29.5h497.68c17.171 0 31.103-12.33 31.103-29.5zM798.698 456.317c-42.527 31.529-96.019 49.769-152.167 49.769-19.513 0-40.031-3.62-61.031-10.812v238.174c0 22.105 8.342 49.241 23.248 78.475 15.504 30.411 38.883 63.137 67.163 94.629 25.119 27.972 54.562 55.045 82.703 76.239 12.373 9.318 22.75 16.148 30.821 21.009a12.395 12.395 0 0 0 12.959-0.128c8.183-5.143 18.621-12.245 31.127-21.754 29.031-22.074 59.1-49.54 84.66-77.353 29.293-31.869 53.64-64.639 69.59-94.761 15.24-28.777 23.728-55.179 23.728-76.357V495.272c-21.25 7.197-41.396 10.812-60.908 10.812-56.146 0.002-109.36-18.238-151.893-49.767z m21.802 296.63v103.951c0 12.624-8.876 22.861-21.5 22.861s-21.5-10.238-21.5-22.861V752.947c-49-10.35-77.13-49.646-77.13-96.411 0-54.63 43.991-99.079 98.62-99.079 54.63 0 98.398 44.445 98.398 99.079 0.006 46.765-35.888 86.068-76.888 96.411z" /></svg>