<?xml version="1.0" standalone="no"?><!DOCTYPE svg PUBLIC "-//W3C//DTD SVG 1.1//EN" "http://www.w3.org/Graphics/SVG/1.1/DTD/svg11.dtd"><svg class="icon" width="200px" height="200.00px" viewBox="0 0 1024 1024" version="1.1" xmlns="http://www.w3.org/2000/svg"><path  d="M683.574 31.6c-170.546 0-308.833 138.288-308.833 308.83 0 33.422 6.656 64.989 16.47 95.117L31.6 855.145v77.207c0 33.213 26.832 60.049 60.049 60.049h77.21v-68.633h137.255V786.514h137.259V649.26H512l33.768-33.766c41.656 20.863 88.05 33.766 137.807 33.766 170.537 0 308.825-138.289 308.825-308.83C992.399 169.888 854.111 31.6 683.574 31.6z m0 480.404C588.797 512.004 512 435.206 512 340.43s76.797-171.571 171.574-171.571c94.776 0 171.57 76.795 171.57 171.571s-76.793 171.574-171.57 171.574z" /></svg>