<?xml version="1.0" standalone="no"?><!DOCTYPE svg PUBLIC "-//W3C//DTD SVG 1.1//EN" "http://www.w3.org/Graphics/SVG/1.1/DTD/svg11.dtd"><svg t="1509514652267" class="icon" style="" viewBox="0 0 1024 1024" version="1.1" xmlns="http://www.w3.org/2000/svg" p-id="3240" xmlns:xlink="http://www.w3.org/1999/xlink" width="200" height="200"><defs><style type="text/css"></style></defs><path d="M546.166635 0c4.549285 2.00409 9.459307 3.346831 13.567692 6.012271 10.731904 6.833948 16.263193 17.034768 16.443561 29.760742 0.200409 14.18896 0 28.37792 0 43.388557h5.892026c9.329041 0.23047 18.818409-0.491002 27.957061 0.941922 17.205116 2.695502 29.059311 17.495709 29.259719 34.911255 0.070143 5.501228 0 11.022497 0 17.245198h121.73847c42.316368 0 72.668317 30.301847 72.678338 72.548071v254.519479c0 19.760331-14.269124 34.169741-33.137635 33.668718a32.205732 32.205732 0 0 1-30.933135-30.341928c-0.080164-1.833743 0-3.677506 0-5.511249v-250.511297c0-9.108591-1.172393-10.250922-10.451331-10.250923H639.356837v22.145199c0 24.049085-14.960535 38.979558-39.079762 38.979558h-367.750585c-24.129248 0-39.079762-14.900412-39.079762-38.969538v-22.155219H73.642205c-7.896116 0-9.449286 1.523109-9.449286 9.238857v742.956386c0 7.825973 1.523109 9.349082 9.32904 9.359102 8.186709 0 16.363398-0.070143 24.550108 0 18.116977 0.200409 32.245814 14.299185 32.235793 32.065446a31.71473 31.71473 0 0 1-32.285896 31.93518c-14.810228-0.150307-29.971172 0.591207-44.340499-2.254602C22.698227 1013.58875 0.442804 984.890176 0.112129 953.27565c-0.210429-20.541926-0.060123-41.083853-0.060123-61.615758V204.317014c0-35.071582 22.295505-63.359317 55.773835-70.473838a80.634576 80.634576 0 0 1 16.40348-1.503068c38.408392-0.120245 76.816784-0.070143 115.235197-0.070143h6.012271v-16.243152c0.130266-21.042949 15.682007-36.714936 36.694895-36.855223 9.309-0.060123 18.618 0 28.428022 0 0-11.764011 0.571166-23.107162-0.120245-34.37015-1.252556-20.441722 5.411044-37.70696 30.181601-44.79142z m42.857472 129.083461h-63.178949V50.362791H308.631822v79.101448h-64.832323v77.708604h345.224608z" p-id="3241" ></path><path d="M897.834394 960.961337c0 11.333131 0.170348 22.145199 0 32.957266-0.280573 14.479553-8.65767 25.461968-21.904708 28.778738a45.723322 45.723322 0 0 1-10.902251 1.262577q-61.615759 0.130266-123.251559 0c-20.932724 0-32.867082-12.024542-32.987327-33.067491-0.060123-9.810022 0-19.620045 0-29.71064H456.93451c0 8.848059 0.140286 17.635995-0.050102 26.413911-0.100205 4.809817-0.160327 9.75992-1.282618 14.39939-3.346831 13.808183-14.830269 21.864626-30.842951 21.924748-26.053175 0.100205-52.10635 0-78.159524 0H301.016279c-21.223317-0.070143-33.157675-12.024542-33.277921-33.287941-0.050102-9.669736 0-19.339472 0-29.750722h-60.142752c-35.422297 0-65.804308-30.291826-65.824349-65.794287q-0.080164-154.795941 0-309.631963c0-2.66544 0.180368-5.340901 0.43088-8.016362 2.865849-29.590394 32.185691-56.886105 61.886311-57.667701h4.00818q374.704778 0 749.419578-0.23047c31.193667-0.050102 59.411259 25.652357 65.042753 51.865859a64.431506 64.431506 0 0 1 1.432924 13.397344q0.120245 155.547475 0 311.09495c0 34.36013-30.772808 64.922508-65.132937 64.97261h-55.112485zM582.741284 582.889687h-340.695364c-3.33681 0-6.683641 0-10.020452 0.260532-12.585688 1.002045-22.505935 8.888141-25.672398 21.042949a55.783856 55.783856 0 0 0-1.54315 13.858285q-0.130266 122.249513 0 244.499026a74.862796 74.862796 0 0 0 0.65133 10.020452A27.856856 27.856856 0 0 0 228.147553 896.830445a61.495513 61.495513 0 0 0 11.934358 1.002045q342.699455 0.070143 685.39891 0c2.174438 0 4.348876 0 6.513294-0.080163 13.728019-0.771575 24.269534-8.797957 27.536201-21.543972a54.511258 54.511258 0 0 0 1.412884-13.377303q0.120245-122.490004 0.060123-244.980008c0-1.833743 0-3.677506-0.080164-5.511249-0.89182-15.191005-9.649695-25.862786-23.978941-28.688554a64.942549 64.942549 0 0 0-12.465442-0.721472q-170.938889-0.060123-341.737492-0.040082zM331.147778 289.681244h367.940973v63.700013H331.147778zM330.957389 457.583936v-63.519645h368.111321v63.519645zM284.41239 394.164496v63.499604H139.747126v-63.499604zM284.41239 289.781448v63.499604H139.747126v-63.499604z" p-id="3242" ></path><path d="M771.937436 834.783807c-31.885078 0-63.780176 0.120245-95.665254-0.050102-15.29121-0.080164-26.263604-8.797957-29.440088-22.916774a45.993874 45.993874 0 0 1-0.921881-9.940288q-0.090184-61.605738 0-123.251559c0-17.155014 7.946218-28.247654 22.62618-31.744791a47.757474 47.757474 0 0 1 10.922293-1.002045q92.408607-0.090184 184.827235 0c22.044994 0 33.628637 11.633745 33.648678 33.738861V801.335538c0 21.834565-11.583642 33.48835-33.307983 33.528432q-46.33457 0.090184-92.659118 0z m1.002046-63.048684c16.032723 0 32.065446 0.060123 48.098169 0 8.296934 0 13.73804-5.531289 13.798162-13.818203 0.080164-11.52352 0-23.047039 0-34.560538 0-6.493253-2.495093-10.521474-8.607568-12.575667a36.484465 36.484465 0 0 0-11.273009-1.833743c-30.392031-0.140286-60.774041-0.110225-91.186112-0.060123-9.579552 0-14.820248 5.32086-14.870351 14.930473q-0.080164 16.533746 0 33.067492c0 7.385073 3.006136 11.593663 10.080575 13.577712a40.262176 40.262176 0 0 0 10.361147 1.262577c14.529655 0.090184 29.059311 0.01002 43.588966 0.01002zM267.968829 771.905471h125.476098v62.597763H267.968829zM393.50505 708.646358H268.129156v-62.407374H393.50505zM457.265185 646.1488h125.345833v62.427415H457.265185zM457.124899 834.393009V772.075819h125.436017v62.31719z" p-id="3243" ></path></svg>