<?xml version="1.0" standalone="no"?><!DOCTYPE svg PUBLIC "-//W3C//DTD SVG 1.1//EN" "http://www.w3.org/Graphics/SVG/1.1/DTD/svg11.dtd"><svg class="icon" width="200px" height="200.00px" viewBox="0 0 1024 1024" version="1.1" xmlns="http://www.w3.org/2000/svg"><path  d="M952.28416 46.95552a31.39584 31.39584 0 0 0-44.39552 0l-312.23296 312.23296a31.39584 31.39584 0 0 0 0 44.39552 31.3344 31.3344 0 0 0 22.20032 9.16992 31.36 31.36 0 0 0 22.20032-9.16992l312.23296-312.23296c12.25216-12.25728 12.25216-32.0512-0.00512-44.39552zM263.76192 599.15264h447.19104v55.90016H263.76192zM263.76192 722.03264h447.19104v55.90016H263.76192zM262.272 486.80448h447.18592v55.90016H262.272zM262.272 375.0144h225.08544v55.90016H262.272zM262.272 263.2192h223.59552v55.90016H262.272zM878.6432 903.28576V456.09984h-55.89504v447.19104H151.96672V120.70912h391.28576V64.81408H151.96672c-30.8736 0-55.90016 25.02656-55.90016 55.89504v782.57664c0 30.8736 25.02656 55.90016 55.90016 55.90016h670.77632c30.87872 0 55.89504-25.02656 55.90016-55.90016z" /></svg>