<?xml version="1.0" standalone="no"?><!DOCTYPE svg PUBLIC "-//W3C//DTD SVG 1.1//EN" "http://www.w3.org/Graphics/SVG/1.1/DTD/svg11.dtd"><svg class="icon" width="200px" height="200.00px" viewBox="0 0 1024 1024" version="1.1" xmlns="http://www.w3.org/2000/svg"><path  d="M516.352821 544.842751l11.122663-10.487082 17.30192-16.383858a12966.835527 12966.835527 0 0 0 201.44378-195.370454c81.813364-81.495573 140.675201-143.782485 166.663391-177.503573 24.928889-32.449927 27.012181-49.999017 18.996802-60.274239-6.602978-8.50972-22.951526-14.865527-31.320006-14.159327-15.607038 1.306471-155.081698 1.553642-391.658969 1.165232a195025.615848 195025.615848 0 0 1-334.315462-0.882751L133.839153 70.840769l-10.593012-0.03531c-27.118111 6.567668-34.391979 13.982776-34.95694 24.010827-0.635581 11.722933 4.696235 26.48253 18.325911 54.165602 12.499754 21.715675 76.834648 89.899363 172.030517 183.54159l15.006767 14.724287a12028.965543 12028.965543 0 0 0 195.617624 187.001974l11.193283 10.487082v343.213593l15.889518 8.015379V544.842751z m-92.194516 25.140749a13457.044819 13457.044819 0 0 1-195.017353-187.143214C126.812455 282.206671 62.865972 214.340773 44.398821 182.279256 24.024927 141.001819 16.256718 119.568624 17.81036 90.932182 20.282063 45.55878 52.97916 14.132844 111.593828 0.997509l3.884104-0.847441h3.990035l14.688976 0.07062L174.7988 0.361928a247597.781674 247597.781674 0 0 0 334.244843 0.847441c225.313368 0.3531 373.333057 0.10593 385.585641-0.918061 31.214076-2.648253 70.973181 12.888165 93.006647 41.136197 30.225395 38.841044 24.010827 91.029284-18.784942 146.713218-28.565823 37.075542-88.698822 100.704235-172.772028 184.494961l-16.807579 16.701649a11746.061499 11746.061499 0 0 1-192.29848 185.942673v435.514039l-157.09437-79.412281V575.385936l-5.720227-5.402436z" /></svg>