<?xml version="1.0" standalone="no"?><!DOCTYPE svg PUBLIC "-//W3C//DTD SVG 1.1//EN" "http://www.w3.org/Graphics/SVG/1.1/DTD/svg11.dtd"><svg class="icon" width="200px" height="200.00px" viewBox="0 0 1024 1024" version="1.1" xmlns="http://www.w3.org/2000/svg"><path  d="M443.4432 652.9536l260.1984-260.1472 47.6672-47.6672 59.5456-59.5456 99.4304-99.4304a51.1488 51.1488 0 1 0-72.3968-72.3968l-126.6176 126.6176A589.824 589.824 0 0 0 512 204.8C285.44 204.8 90.0096 330.5472 0 512c46.3872 93.5424 120.832 172.2368 213.0432 226.56l-99.2768 99.2768a51.1488 51.1488 0 1 0 72.3968 72.3968l125.5424-125.5424 64.9728-64.9728 66.7648-66.7648z m203.52-348.3648l-2.048 2.048c-1.536-1.3312-2.816-2.816-4.352-4.096 2.2016 0.5632 4.1984 1.4848 6.4 2.048zM471.04 337.92c38.7584 0 71.0144 26.9824 79.5136 63.0784L452.1984 499.3536A81.7664 81.7664 0 0 1 471.04 337.92zM97.1776 512C152.3712 411.2896 256.5632 334.1824 383.488 302.5408A203.4688 203.4688 0 0 0 307.2 460.8c0 51.2 19.3024 97.4336 50.4832 133.12l-85.0432 84.992c-75.8784-39.8336-137.4208-97.536-175.4624-166.912zM894.976 346.2656l-57.2928 57.2928a396.288 396.288 0 0 1 88.9856 108.3904c-72.9088 133.0688-231.2192 225.28-414.72 225.28-2.56 0-4.9664-0.4096-7.4752-0.4608l-76.4928 76.4928C455.3728 817.2032 483.4304 819.2 512 819.2c226.56 0 421.9904-125.7472 512-307.2a537.2416 537.2416 0 0 0-129.024-165.7344z"  /></svg>