<?xml version="1.0" standalone="no"?><!DOCTYPE svg PUBLIC "-//W3C//DTD SVG 1.1//EN" "http://www.w3.org/Graphics/SVG/1.1/DTD/svg11.dtd"><svg class="icon" width="200px" height="200.00px" viewBox="0 0 1024 1024" version="1.1" xmlns="http://www.w3.org/2000/svg"><path  d="M648.12643 18.400811 426.129549 179.853088c-6.331462 4.550738-9.892909 11.871491-9.892909 19.58796 0 7.716469 3.759305 15.037222 9.892909 19.58796l221.996881 161.254419c7.320753 5.342171 17.015804 6.133604 25.127989 1.978582 8.112185-4.155022 13.256498-12.465066 13.256498-21.566542l0-89.431899c33.042316 19.58796 62.918902 44.320233 88.442608 74.394677 59.159597 70.239655 87.453317 159.275837 79.736848 250.884175-7.716469 91.41048-50.651695 174.510917-120.89135 233.670514-70.239655 59.159597-159.275837 87.453317-250.884175 79.736848-91.608339-7.716469-174.510917-50.651695-233.670514-120.89135C189.886879 718.620919 161.593159 629.782595 169.507486 538.174257c7.716469-89.629757 49.266687-171.543044 117.329902-230.504783 23.545124-20.379393 25.919422-55.993866 5.737887-79.538989-20.379393-23.545124-55.993866-25.919422-79.538989-5.540029C122.615097 300.744437 67.412664 409.566438 57.124038 528.677064c-10.288625 121.484924 27.304429 239.606259 105.854128 332.995321 78.549698 93.191204 188.756706 150.174361 310.24163 160.660844 121.484924 10.288625 239.606259-27.304429 332.995321-105.854128 93.191204-78.549698 150.174361-188.756706 160.660844-310.24163 1.187149-13.256498 1.582865-26.315138 1.582865-39.373778 0-107.436993-37.395197-210.323248-107.436993-293.423685-47.88168-56.785298-107.634851-100.11624-174.510917-127.816386L686.510917 37.988771c0-9.101476-5.144313-17.41152-13.256498-21.566542C665.142233 12.465066 655.447182 13.05864 648.12643 18.400811L648.12643 18.400811z"  /><path  d="M509.625702 487.324704"  /><path  d="M512 577.548035m-124.650655 0a63 63 0 1 0 249.30131 0 63 63 0 1 0-249.30131 0Z"  /></svg>