<?xml version="1.0" standalone="no"?><!DOCTYPE svg PUBLIC "-//W3C//DTD SVG 1.1//EN" "http://www.w3.org/Graphics/SVG/1.1/DTD/svg11.dtd"><svg class="icon" width="200px" height="200.00px" viewBox="0 0 1024 1024" version="1.1" xmlns="http://www.w3.org/2000/svg"><path  d="M640 582.4V480c0-19.2-12.8-32-32-32s-32 12.8-32 32v102.4c-38.4 12.8-64 51.2-64 89.6s25.6 76.8 64 89.6v166.4c0 19.2 12.8 32 32 32s32-12.8 32-32v-166.4c38.4-12.8 64-51.2 64-89.6s-25.6-76.8-64-89.6zM608 704c-19.2 0-32-12.8-32-32s12.8-32 32-32 32 12.8 32 32-12.8 32-32 32zM960 544c0-44.8-25.6-76.8-64-89.6V288c0-19.2-12.8-32-32-32s-32 12.8-32 32v166.4c-38.4 12.8-64 51.2-64 89.6s25.6 76.8 64 89.6v294.4c0 19.2 12.8 32 32 32s32-12.8 32-32V633.6c38.4-12.8 64-44.8 64-89.6z m-96 32c-19.2 0-32-12.8-32-32s12.8-32 32-32 32 12.8 32 32-12.8 32-32 32zM416 640h-192c-19.2 0-32 12.8-32 32s12.8 32 32 32h192c19.2 0 32-12.8 32-32s-12.8-32-32-32zM416 448h-192c-19.2 0-32 12.8-32 32s12.8 32 32 32h192c19.2 0 32-12.8 32-32S435.2 448 416 448zM640 288c0-19.2-12.8-32-32-32h-128c-19.2 0-32 12.8-32 32s12.8 32 32 32h128c19.2 0 32-12.8 32-32z"  /><path  d="M768 384V128c0-32-32-64-64-64H288c-6.4 0-19.2 0-25.6 6.4l-192 192c0 6.4-6.4 19.2-6.4 25.6V832c0 32 32 64 64 64h320v-64H160c-19.2 0-32-12.8-32-32V320h140.8c25.6 0 51.2-25.6 51.2-51.2V128h352c19.2 0 32 12.8 32 32V384h64zM256 224c0 19.2-12.8 32-32 32h-51.2L256 172.8v51.2z"  /></svg>