<?xml version="1.0" standalone="no"?><!DOCTYPE svg PUBLIC "-//W3C//DTD SVG 1.1//EN" "http://www.w3.org/Graphics/SVG/1.1/DTD/svg11.dtd"><svg class="icon" width="200px" height="200.00px" viewBox="0 0 1024 1024" version="1.1" xmlns="http://www.w3.org/2000/svg"><path  d="M257.691525 429.127548h108.761076V320.457546H257.691525v108.670002z m31.013341-77.731363h46.703695v46.703695h-46.703695v-46.703695zM428.860976 398.297378h264.453021v-62.605873H428.860976v62.605873zM257.691525 600.372723h108.761076V491.702722H257.691525v108.670001z m31.013341-77.733408h46.703695v46.704718h-46.703695v-46.704718zM428.860976 569.542554h264.453021v-62.605873H428.860976v62.605873zM257.691525 771.619946h108.761076V662.947897H257.691525v108.672049z m31.013341-77.735456h46.703695v46.703695h-46.703695v-46.703695zM895.092583 796.587594c-1.602498-0.731664-2.159176-2.020006-2.333138-2.923586-0.173962-0.906649-0.13917-2.264577 1.149173-3.622504 1.322112-1.427512 2.889817-2.5071 5.083785-3.446495 15.985066-7.140631 24.552186-21.001313 22.915919-37.124526-1.671059-16.576537-6.617721-30.368658-15.149025-42.104957-11.249205-15.496949-28.418236-20.547988-45.865607-13.269211-2.471284 1.00898-4.770653 1.49812-7.243985 1.49812-1.288343 0-3.27151-1.288343-3.377933-2.472308-0.140193-1.706875 0.105401-3.343141 0.870833-5.503341 1.707898-4.839215 4.249791-12.119015 2.473331-21.137412-2.856048-13.826913-12.606109-21.732977-17.170054-25.457812-12.849656-10.588149-27.894304-13.757329-38.063921-15.219633-12.884448-2.124384-25.108864 2.821255-33.04972 13.024641-3.03001 3.866051-5.735631 7.829316-7.522324 11.911284-0.497327 1.13587-3.451612 4.757351-7.416923 2.402723-1.589195-0.941442-2.542916-3.203972-4.111645-6.546089-7.27673-15.183817-20.651342-22.776749-36.878932-20.930705-17.831111 2.088568-32.003901 7.522324-43.25413 16.576537-12.606109 10.133801-17.35425 23.856337-13.720489 38.795584 0.396019 1.633197 0.680499 3.082198 1.182942 4.810563 0 0 0.557702 2.060939 0.61296 3.285836 0.045025 1.00591 0.273223 2.067079-0.279362 3.121084-0.610914 1.169639-1.825578 2.51017-4.685719 2.399653-2.12336-0.13917-4.876054-0.731664-10.239202-2.263553-8.009418-2.229784-23.436782-3.657296-37.194111 12.013614-9.611915 11.005658-13.546527 23.576975-16.089443 34.409695-4.457522 18.771529 2.89084 41.928948 25.00551 49.625234 0.313132 0.173962 3.346211 0.172939 3.759627 3.656273 0.212848 1.777483-2.366907 3.971451-6.824429 5.851265-15.845896 6.652514-24.203238 20.826328-22.951734 38.865169 1.081635 15.287171 6.408967 29.288047 15.811104 41.650609 9.647731 12.67774 24.169469 18.039865 39.944757 14.417361 4.702092-1.078565 8.846482-1.913583 11.389398-2.12336 0.068562 1.463328-0.836041 3.901867-1.776459 6.374174-1.811252 4.596691-4.041036 11.701506-2.647294 20.269649 1.531889 9.507538 6.338359 17.48114 14.800078 24.411993 10.762111 8.810666 24.066115 14.592346 40.676421 17.690917 19.572778 3.656273 37.715997-5.851265 44.751227-23.784706 0.348947-0.941442 1.799996-6.64535 5.624091-6.376221 3.084245 0.221034 3.38919 2.687202 5.345751 7.0383 6.801916 15.125489 19.780509 23.923876 34.513049 23.923876 1.63729 0 3.308349-0.104377 5.013177-0.313132 13.96506-1.846044 26.886347-6.755868 38.448683-14.592346 16.264429-11.07422 22.184255-31.029714 14.347777-48.511877-0.347924-0.76748-1.286296-4.229325-0.488117-5.606695 1.486864-2.567475 6.836709-0.059352 12.815886 1.428536 15.35164 3.815909 30.15888-0.835018 41.441855-13.512759 10.900258-12.362562 14.453177-26.814716 16.19382-36.636408 2.612501-14.83487-2.333138-25.318642-6.895037-31.483039-5.63944-7.629771-13.09218-11.739369-18.942421-14.490015z m-9.265014 39.805587c-1.600451 8.949836-4.004197 14.870686-7.79964 19.153223-2.960425 3.37998-4.284583 3.064802-5.954619 2.6125-8.392134-2.12336-17.622356-3.796466-27.895327-1.983167-15.428388 2.750647-28.312836 17.132192-29.323862 32.596395-0.591471 8.600889 0.558725 16.020882 3.587711 22.706142 1.010003 2.264577-1.183965 3.971451-1.845021 4.423752-7.001461 4.735861-14.557554 7.590885-23.437805 8.809643-0.243547-0.13917-1.115404-1.00898-1.985214-2.924609-4.944616-11.07422-12.432147-18.945491-22.393009-23.437805-13.269211-5.919826-27.129894-4.213975-39.10974 4.736885-7.03523 5.29254-12.154831 11.874445-15.21861 19.606546-0.314155 0.835018-0.766456 2.403746-5.015223 1.777483-10.691503-2.022053-18.526959-5.259794-24.621771-10.241248l-2.539846-2.269693 1.078565-1.979075c2.227738-5.780657 4.526083-12.607132 4.109598-20.929681-0.76748-16.890692-13.443174-30.786167-30.090319-33.015951a55.260581 55.260581 0 0 0-6.65149-0.416486c-6.54609 0-12.502755 1.217734-18.10945 2.472308-2.193968 0.557702-2.5071 0.313132-3.691066-1.218758-5.119601-6.756891-8.04421-14.347776-8.600888-22.566972 0 0-0.106424-1.792832 0.118703-2.331091 0.152473-0.36225 0.731664-0.945535 1.064239-1.15122 10.397814-6.477528 19.920702-12.71151 24.970717-22.985503 6.441713-13.093203 4.876054-27.372418-4.284583-38.238906-4.456498-5.222955-10.655687-11.630898-19.153222-14.591323-3.971451-1.39272-2.613524-7.906064-2.613524-8.010441 2.230808-9.43693 4.632507-14.97404 10.970866-19.677155 5.468548 1.532913 12.189623 3.518127 20.164249 2.925632 20.686135-1.289366 35.487236-15.498996 36.811394-34.791387l0.591471-5.886058-0.382717-7.068999c-0.348947-3.448542-0.766456-6.860245-0.069585-12.468986 5.954619-4.804423 13.895475-7.661494 25.526373-8.183379 2.299369 4.910846 5.713119 11.31879 11.667738 17.030885 8.983605 8.600889 21.383006 12.153808 33.954323 9.994631 13.163811-2.332115 24.448832-10.761088 30.229488-22.532179a26.770713 26.770713 0 0 1 3.343141-5.259794c9.751085 1.393743 15.880689 3.622504 20.61655 7.523347 1.11438 0.940418 4.561899 3.691065 4.736885 3.796466l-1.080612 3.447519c-2.438539 6.825452-3.343141 13.476943-2.750647 20.442588 1.740644 18.909675 17.933441 34.267455 36.845163 34.930557 7.800663-0.069585 15.462157-1.11438 22.87908-4.178159l1.749854-0.874927 1.662872 2.127454c4.736884 6.512321 7.52437 14.627139 6.721076 25.667589-6.477528 2.821255-12.119015 6.755868-16.680915 11.630898-8.776897 9.262968-12.57234 22.25384-10.204409 34.721803 2.367931 12.502755 10.691503 23.159466 22.288632 28.592198 1.879813 0.86981 4.457522 2.192945 5.362125 3.376911 0.384763 0.522909 0.941442 1.289366 0.452301 4.109597z"  /><path  d="M752.446769 708.793038c-47.050596 0.62524-83.791381 37.401842-83.651188 83.684958 0.068562 22.566972 8.949836 43.742247 25.073048 59.621912 15.777335 15.601326 36.56887 24.133653 58.542324 24.133654h0.90665c46.736441-0.451278 84.452437-38.169321 84.068697-84.10349-0.172939-22.497387-9.122775-43.601031-25.213241-59.343573-16.055674-15.741519-37.369096-24.239054-59.72629-23.993461z m0.520863 131.779326c-13.302981 1.149173-24.899086-4.771677-34.0587-13.861706-9.299807-9.157567-14.417361-21.348214-14.453177-34.302247-0.068562-26.538423 21.209044-47.605228 48.443315-47.955198h0.626264c12.641925 0 24.586978 4.876054 33.675984 13.792121 9.263991 9.089006 14.417361 21.209044 14.522761 34.1641 0.243547 26.291806-21.626553 47.919383-48.756447 48.16293z"  /><path  d="M543.560298 896.266827H164.163385V195.718567h62.271252v31.135114c0 22.119787 14.350846 32.914644 36.426631 32.914644 22.045085 0 41.412179-10.794857 41.412179-32.914644v-31.135114h124.54148v31.135114c0 22.119787 24.278963 32.914644 46.339398 32.914644 22.10546 0 47.067992-10.794857 47.067992-32.914644v-31.135114H646.763798v46.703695c0 22.119787 19.459191 17.346063 41.533952 17.346063 22.059412 0 36.303834-10.794857 36.303834-32.914644v-31.135114h62.272276v386.92026h62.271252V211.286124c0-45.898353-32.093952-77.837786-77.83881-77.837786h-46.704718V102.3122c0-22.13616-14.244422-38.614459-36.303834-38.614459-22.074761 0-41.533952 16.479323-41.533952 38.614459v31.136138H522.221294V102.3122c0-22.13616-24.962531-38.614459-47.067992-38.614459-22.059412 0-46.339398 16.479323-46.339398 38.614459v31.136138H304.273447V102.3122c0-22.13616-19.367093-38.614459-41.412179-38.614459-22.075785 0-36.426631 16.479323-36.426631 38.614459v31.136138h-46.702671c-45.791929 0-77.838809 31.940456-77.83881 77.837786v669.412123c0 45.898353 32.04688 77.837786 77.83881 77.837786h363.828332v-62.269206z"  /><path  d="M428.860976 678.180833h97.302093v62.606897H428.860976z"  /></svg>