<?xml version="1.0" standalone="no"?><!DOCTYPE svg PUBLIC "-//W3C//DTD SVG 1.1//EN" "http://www.w3.org/Graphics/SVG/1.1/DTD/svg11.dtd"><svg class="icon" width="200px" height="199.22px" viewBox="0 0 1028 1024" version="1.1" xmlns="http://www.w3.org/2000/svg"><path  d="M947.904 180.16c-0.768-3.2-3.072-5.696-6.208-6.656-3.2-0.96-6.464-0.064-8.832 2.176l-75.648 73.536c-5.504 5.376-15.04 5.312-20.48-0.256l-76.16-78.4c-5.568-5.696-5.44-14.976 0.384-20.544l75.584-73.472c2.304-2.304 3.2-5.568 2.304-8.704-0.768-3.136-3.2-5.568-6.528-6.4-12.416-3.072-25.28-4.608-38.144-4.608-41.216 0-79.936 15.744-109.376 44.288-38.72 37.632-55.168 93.376-43.328 146.56L274.688 604.16C262.016 601.024 248.96 599.36 235.776 599.36c-40.96 0-79.488 15.616-108.736 44.032-39.104 38.08-55.552 92.8-43.776 146.432 0.704 3.136 3.008 5.696 6.144 6.656 3.136 0.96 6.528 0.064 8.896-2.176l75.52-73.408c5.632-5.44 15.04-5.248 20.544 0.256l76.032 78.336c5.632 5.824 5.568 14.976-0.256 20.48l-75.648 73.536c-2.304 2.24-3.136 5.504-2.304 8.768 0.768 3.072 3.264 5.504 6.464 6.272C211.136 911.616 224 913.28 236.864 913.28c41.216 0 79.808-15.744 109.44-44.352 33.088-32.256 49.856-77.312 46.528-124.096l385.92-375.04c5.376 0.64 10.944 0.896 16.384 0.896 41.088 0 79.68-15.616 108.8-43.84C943.168 288.576 959.424 233.856 947.904 180.16zM1002.624 849.28l-349.952-350.656C613.376 459.328 624.832 426.624 624.832 426.624l-31.808-32L473.28 514.176l69.568-69.632-282.368-282.88 3.84-39.616L140.608 45.632 67.136 119.36l76.16 123.648 51.456-7.808 278.528 278.976L423.616 563.712l32 31.936c0 0 41.856-2.112 66.88 22.848l355.008 355.648c34.368 34.56 90.368 34.624 124.928 0.192C1036.864 939.776 1037.184 883.776 1002.624 849.28z" /></svg>