<?xml version="1.0" standalone="no"?><!DOCTYPE svg PUBLIC "-//W3C//DTD SVG 1.1//EN" "http://www.w3.org/Graphics/SVG/1.1/DTD/svg11.dtd"><svg class="icon" width="200px" height="200.00px" viewBox="0 0 1024 1024" version="1.1" xmlns="http://www.w3.org/2000/svg"><path d="M617.616968 848.00873c-14.176884-11.500938-15.678074-28.727275-15.678075-28.727275l-5.304819-37.366026H427.364903l-5.30482 37.366026s-1.502213 17.226337-15.654538 28.727275c-14.153348 11.453866-25.324782 21.310352-14.153348 22.954805 10.749832 1.596358 112.236224 0.141216 119.747291 0 7.511067 0.141216 108.99746 1.596358 119.747292 0 11.171434-1.64343 0-11.499915-14.129812-22.954805z m270.286889-695.714162H136.118656c-18.049075 0-32.694633 16.124236-32.694633 35.98047v521.680476c0 19.856233 14.645558 36.004005 32.694633 36.004005h751.786224c18.025539 0 32.67212-16.146749 32.672121-36.004005v-521.6815c-0.001023-19.85521-14.647605-35.979446-32.673144-35.979446z m-16.335037 485.700008H152.453692V206.276017h719.115128v431.718559z"  /><path d="M375.721709 372.054691h181.27153v44.202734c0 0.831948 0.161682 1.683339 0.36532 2.474355 0.079818 0.222057 0.161682 0.446162 0.201591 0.688685 0.203638 0.608867 0.488117 1.195222 0.811482 1.763157 0.079818 0.161682 0.161682 0.343831 0.283456 0.507559 0.405229 0.607844 0.851391 1.235131 1.337461 1.722225 0.081864 0.080841 0.161682 0.080841 0.161682 0.10233a8.902764 8.902764 0 0 0 2.472308 1.763157 10.377348 10.377348 0 0 0 10.742669-0.830925l94.689592-67.85748c2.63399-1.945305 4.214998-4.984524 4.214998-8.227382a10.166547 10.166547 0 0 0-4.214998-8.228405l-94.689592-67.896367c-1.946328-1.358951-4.214998-1.945305-6.485715-1.843997-0.729617 0.039909-1.379417 0.100284-2.068102 0.262989-0.769526 0.182149-1.499144 0.384763-2.188852 0.750084-3.445472 1.74269-5.634324 5.248537-5.634324 9.038863v44.224224H375.721709c-13.256932 0-23.997554 10.579963-23.997554 23.692609 0 13.071713 10.740622 23.691585 23.997554 23.691585z m272.557606 89.420589H467.005738v-44.203758c0-3.810792-2.188852-7.29515-5.634324-9.03784-0.689708-0.364297-1.419326-0.567935-2.188852-0.750084-0.689708-0.161682-1.338485-0.224104-2.028193-0.26299h-0.038885c-2.269693-0.102331-4.54041 0.465604-6.446829 1.823532l-94.689593 67.915809c-2.632967 1.904373-4.254907 4.945639-4.254907 8.228405 0 3.242857 1.62194 6.2831 4.254907 8.208963l94.650707 67.874876c3.162016 2.25025 7.296173 2.573615 10.741645 0.831948a8.162914 8.162914 0 0 0 2.432399-1.764179c0.039909-0.039909 0.121773-0.039909 0.161682-0.102331a9.898441 9.898441 0 0 0 1.419326-1.741667l0.242524-0.488117c0.324388-0.567935 0.567935-1.173732 0.810458-1.763157 0.081864-0.242524 0.162706-0.48607 0.162706-0.688685 0.242524-0.791016 0.405229-1.642406 0.405229-2.492774V508.879939h181.273577c13.254885 0 23.995507-10.618848 23.995507-23.691585 0-13.112646-10.740622-23.713075-23.995507-23.713074z"  /></svg>