<?xml version="1.0" standalone="no"?><!DOCTYPE svg PUBLIC "-//W3C//DTD SVG 1.1//EN" "http://www.w3.org/Graphics/SVG/1.1/DTD/svg11.dtd"><svg class="icon" width="200px" height="200.00px" viewBox="0 0 1024 1024" version="1.1" xmlns="http://www.w3.org/2000/svg"><path d="M447 140.3c-64.9 100.6-32 174.3-32 174.3s-25.2-41.3-37.7 0c-12.6 41.4 8.3 58 52.5 109.7 44 51.8 111.2 130.4 163.6 149 52.5 18.6 142.6-76.5 195.1-138.6 52.5-62.1 50.3-97.3 35.6-120.1-14.6-22.8-23 0-23 0s18.9-106.5-31.5-170.7C685 36.2 512 39.8 447 140.3z m34.6 450s29.8 86.3 57.6 145.2c27.6 58.9 25.5 37.9 25.5 37.9s21.3-77.8 21.3-94.7-29.8-31.6-19.2-58.9c10.7-27.4 44.7-37.9 70.3-21 25.5 16.7 23.5 29.4 10.6 56.8-12.7 27.3-14.9 42.1-14.9 42.1l27.6 79.9 78.8-180.9c24-55.2 232.7 161.1 220.1 277.6-13.2 120.8-705.7 96.3-705.7 33.7 0.1-159.2 76.9-264.4 228-317.7zM64 447.4c0-2 167.4-152 175-159.4 24.2 23.6 170.9 159.4 170.9 159.4v125.4c0 32.4-83.3 24.2-147.7 132-69.5 116.3-35.4 227.8-65.1 230.1-28.5 2.3-61.5-0.7-98.6-0.7-19 0-34.5-11.7-34.5-25.9V447.4z m170.8-58.7c-51.8 0-93.8 41.5-93.8 92.6 0 51.1 42 92.6 93.8 92.6s93.9-41.5 93.9-92.6c0-51.1-42.1-92.6-93.9-92.6z" /></svg>