<?xml version="1.0" standalone="no"?><!DOCTYPE svg PUBLIC "-//W3C//DTD SVG 1.1//EN" "http://www.w3.org/Graphics/SVG/1.1/DTD/svg11.dtd"><svg class="icon" width="200px" height="200.00px" viewBox="0 0 1024 1024" version="1.1" xmlns="http://www.w3.org/2000/svg"><path  d="M905.625 645.341c-15.65-15.642-33.913-27.752-54.293-35.994-19.618-7.94-40.347-11.964-61.614-11.964-2.66 0-5.32 0.065-7.977 0.193l-113.717-113.72 92.222-93.847 12.936 12.927 36.193-36.193L932.053 244.05l36.201-36.204-36.202-36.202-52.79-52.791-36.203-36.203-36.202 36.199-122.7 122.682-36.221 36.215 13.214 13.205-49.566 49.704a264.2 264.2 0 0 0-1.586-55.093c-3.746-27.984-11.895-54.991-24.224-80.273-12.756-26.158-29.738-49.938-50.476-70.677-25.102-25.102-54.393-44.542-87.06-57.78-31.51-12.769-64.802-19.243-98.954-19.243-36.38 0-71.7 7.311-104.976 21.73l-69.092 29.939 53.245 53.245 145.872 145.872-9.283 28.51-28.523 9.287L190.654 200.3 137.4 147.045l-29.931 69.11c-20.76 47.934-26.815 100.486-17.508 151.98 9.552 52.846 34.734 100.91 72.823 138.993a265.924 265.924 0 0 0 19.848 17.937c2.405 1.979 4.524 3.474 5.937 4.468 0.215 0.15 0.432 0.303 0.646 0.458l0.83 0.638c4.063 3.127 8.67 6.67 13.957 10.166 26.519 17.512 55.74 29.926 86.398 36.865L140.862 726.814l-23.716 23.656 12.177 31.208 31.827 81.562 8.383 21.484 21.646 7.957 78.66 28.922 30.595 11.249 23.139-22.963 226.694-224.97 75.202 75.205c-0.343 43.615 16.69 85.997 48.05 117.339 15.629 15.634 33.903 27.763 54.301 36.035 19.673 7.978 40.443 12.023 61.734 12.023 21.297 0 42.07-4.045 61.743-12.023 20.385-8.268 38.66-20.393 54.314-36.04 15.658-15.66 27.789-33.935 36.056-54.328 7.976-19.67 12.02-40.44 12.02-61.734s-4.044-42.063-12.02-61.735c-8.266-20.39-20.394-38.667-36.042-54.32z m-116.07 228.982c-28.894 0-57.805-11.03-79.845-33.076-27.328-27.308-37.68-65.126-31.153-100.442L550.404 612.65 446.921 509.167c-8.769 4.56-17.802 8.403-27.005 11.615-1.098 0.384-2.2 0.746-3.303 1.114-0.632 0.209-1.265 0.42-1.901 0.625-0.958 0.307-1.915 0.606-2.875 0.9-0.914 0.28-1.83 0.553-2.747 0.82-0.744 0.219-1.488 0.44-2.234 0.65-1.719 0.482-3.437 0.951-5.162 1.393-3.12 0.792-6.29 1.368-9.446 2.024-4.174 0.868-8.347 1.65-12.559 2.26-3.245 0.474-6.473 0.914-9.736 1.24-5.232 0.51-10.482 0.802-15.748 0.93-1.807 0.046-3.594 0.226-5.397 0.226-40.669 0-81.34-11.61-116.577-34.88-4.137-2.734-8.093-5.825-12.068-8.878-1.677-1.277-3.445-2.388-5.066-3.729a213.218 213.218 0 0 1-16.115-14.556c-63.4-63.39-78.13-156.852-44.535-234.417L322.52 404.577l83.144-27.071 27.071-83.135-168.07-168.07c26.925-11.668 55.781-17.51 84.62-17.51 54.231 0 108.428 20.645 149.807 62.024 68.341 68.35 80.152 171.664 35.784 252.283l33.214 33.222 0.23 0.23 26.166 26.167v0.009l168.93 168.93a114.036 114.036 0 0 1 26.305-3.072c28.856 0 57.677 10.946 79.697 32.96 44.096 44.104 44.096 115.608 0 159.706-22.059 22.045-50.95 33.073-79.863 33.073zM733.52 290.89l-13.163-13.154 122.701-122.68 52.79 52.79-122.68 122.692-13.253-13.243-153.213 155.916-1.355-1.358-26.18-26.18L733.518 290.89zM287.506 873.549l-78.66-28.922-31.826-81.564 220.775-220.209 0.036-0.007c2.456-0.492 4.995-1.003 7.655-1.68 13.395-3.429 26.232-7.921 38.31-13.407l95.708 95.709-251.998 250.08zM433.667 608.174l10.86 10.86-172.32 172.323-10.862-10.861zM819.79 726.402a50.506 50.506 0 0 0-28.347-8.66 50.562 50.562 0 0 0-19.732 3.985 50.842 50.842 0 0 0-22.294 18.357 50.494 50.494 0 0 0-8.66 28.345 50.552 50.552 0 0 0 3.987 19.734 50.84 50.84 0 0 0 18.355 22.293 50.505 50.505 0 0 0 28.345 8.661 50.567 50.567 0 0 0 19.734-3.986 50.842 50.842 0 0 0 22.293-18.357 50.496 50.496 0 0 0 8.663-28.345 50.59 50.59 0 0 0-3.988-19.733 50.856 50.856 0 0 0-18.356-22.294z m4.207 55.773a35.483 35.483 0 0 1-12.807 15.552c-5.647 3.809-12.401 6.025-19.746 6.028a35.179 35.179 0 0 1-13.748-2.773 35.487 35.487 0 0 1-15.55-12.807c-3.81-5.649-6.025-12.403-6.03-19.746 0.002-4.899 0.99-9.526 2.773-13.748a35.485 35.485 0 0 1 12.809-15.552c5.647-3.809 12.401-6.025 19.744-6.028a35.18 35.18 0 0 1 13.75 2.773 35.479 35.479 0 0 1 15.55 12.807c3.81 5.649 6.025 12.403 6.028 19.746a35.193 35.193 0 0 1-2.773 13.748z" /></svg>