<?xml version="1.0" standalone="no"?><!DOCTYPE svg PUBLIC "-//W3C//DTD SVG 1.1//EN" "http://www.w3.org/Graphics/SVG/1.1/DTD/svg11.dtd"><svg class="icon" width="200px" height="199.80px" viewBox="0 0 1025 1024" version="1.1" xmlns="http://www.w3.org/2000/svg"><path d="M759.72608 684.27776c-50.24768 0-91.11552 40.86784-91.11552 91.10528 0 50.24768 40.86784 91.11552 91.11552 91.11552s91.11552-40.86784 91.11552-91.11552C850.85184 725.1456 809.984 684.27776 759.72608 684.27776zM759.72608 835.5328c-33.14688 0-60.12928-26.9824-60.12928-60.13952 0-33.14688 26.9824-60.11904 60.12928-60.11904s60.12928 26.97216 60.12928 60.11904C819.85536 808.5504 792.87296 835.5328 759.72608 835.5328zM1018.49088 724.1728c-2.83648-15.04256-11.84768-24.69888-22.8352-24.46336l-2.29376 0c-37.72416 0-68.41344-30.67904-68.41344-68.43392 0-12.41088 5.89824-26.04032 5.94944-26.15296 5.82656-13.11744 1.34144-29.21472-10.43456-37.4272l-0.64512-0.4608-65.78176-36.53632-0.69632-0.29696c-3.8912-1.6896-8.18176-2.54976-12.70784-2.54976-9.3696 0-18.56512 3.7376-24.576 9.97376-8.02816 8.32512-33.37216 29.82912-53.79072 29.82912-20.6336 0-46.11072-21.95456-54.17984-30.39232-6.05184-6.37952-15.3088-10.17856-24.77056-10.17856-4.4544 0-8.6528 0.8192-12.48256 2.44736l-0.70656 0.3072-68.11648 37.39648-0.6656 0.48128c-11.79648 8.20224-16.30208 24.27904-10.48576 37.36576 0.06144 0.1536 5.96992 13.78304 5.96992 26.19392 0 37.75488-30.69952 68.43392-68.43392 68.43392l-2.29376 0c-10.97728-0.24576-19.97824 9.4208-22.82496 24.46336-0.22528 1.1776-5.50912 29.36832-5.50912 51.57888 0 22.19008 5.28384 50.37056 5.50912 51.56864 2.80576 14.848 11.61216 24.46336 22.41536 24.46336 0.13312 0 0.26624-0.01024 0.39936-0.01024L528.384 851.77344c37.7344 0 68.43392 30.68928 68.43392 68.41344 0 12.43136-5.90848 26.08128-5.95968 26.18368-5.81632 13.09696-1.34144 29.19424 10.41408 37.40672l0.64512 0.4608 64.54272 36.08576 0.67584 0.28672c3.8912 1.71008 8.15104 2.59072 12.66688 2.59072 9.48224 0 18.72896-3.90144 24.70912-10.42432 7.56736-8.22272 33.92512-31.6928 55.00928-31.6928 21.22752 0 47.16544 23.33696 55.35744 32.31744 6.00064 6.61504 15.31904 10.58816 24.89344 10.58816 4.43392 0 8.61184-0.82944 12.43136-2.49856l0.69632-0.29696 66.90816-36.9664 0.65536-0.4608c11.776-8.21248 16.26112-24.28928 10.45504-37.38624-0.06144-0.14336-5.95968-13.7728-5.95968-26.20416 0-37.72416 30.69952-68.41344 68.42368-68.41344l2.28352 0c10.98752 0.21504 19.99872-9.41056 22.82496-24.45312 0.23552-1.19808 5.51936-29.37856 5.51936-51.56864C1024 753.54112 1018.71616 725.3504 1018.49088 724.1728zM988.16 820.93056c-52.40832 2.7136-94.208 46.19264-94.208 99.25632 0 17.74592 6.912 34.7648 8.41728 38.25664l-62.50496 34.54976c-0.04096 0-0.07168 0-0.1024 0-0.89088 0-1.73056-0.33792-2.02752-0.52224-1.11616-1.23904-10.16832-10.93632-23.21408-20.6336-19.44576-14.4384-37.95968-21.74976-55.00928-21.74976-16.896 0-35.26656 7.17824-54.59968 21.32992-12.97408 9.5232-21.97504 19.03616-23.11168 20.26496-0.28672 0.18432-1.1264 0.512-2.00704 0.512-0.0512 0-0.09216 0-0.14336 0l-60.28288-33.71008c1.49504-3.4304 8.42752-20.50048 8.42752-38.30784 0-53.06368-41.79968-96.54272-94.18752-99.26656-0.75776-4.16768-4.85376-27.5968-4.85376-45.1584 0-17.58208 4.08576-41.0112 4.84352-45.17888 52.39808-2.7136 94.19776-46.21312 94.19776-99.28704 0-17.69472-6.88128-34.68288-8.3968-38.22592l63.6928-34.97984c0.06144 0 0.14336-0.01024 0.22528-0.01024 1.04448 0 2.03776 0.39936 2.36544 0.62464 1.03424 1.0752 9.99424 10.28096 22.85568 19.47648 19.08736 13.58848 37.15072 20.49024 53.7088 20.49024 16.39424 0 34.31424-6.77888 53.25824-20.09088 12.81024-9.0112 21.71904-18.06336 22.75328-19.11808 0.31744-0.21504 1.30048-0.60416 2.3552-0.60416 0.09216 0 0.19456 0 0.23552 0l61.50144 34.17088c-1.49504 3.4816-8.41728 20.51072-8.41728 38.26688 0 53.08416 41.79968 96.58368 94.208 99.28704 0.74752 4.16768 4.84352 27.5968 4.84352 45.17888C993.00352 793.31328 988.90752 816.75264 988.16 820.93056zM462.51008 887.6032 193.60768 887.6032c-50.39104 0-99.54304-46.42816-99.54304-94.02368L94.06464 259.00032l429.1584 222.0544 405.97504-210.06336 0 210.06336c0 0 0 17.29536 21.42208 17.29536s23.13216-17.29536 23.13216-17.29536L973.75232 228.90496c0-36.15744-11.3664-69.44768-32.02048-93.31712-21.99552-25.3952-53.5552-39.60832-88.89344-39.60832L193.60768 95.97952c-35.09248 0-70.88128 13.75232-98.21184 37.33504-29.5936 25.5488-45.89568 59.63776-45.89568 95.5904l0 564.67456c0 35.44064 16.50688 71.1168 45.30176 97.87392 27.82208 25.856 63.83616 40.71424 98.816 40.71424l265.48224 0C486.4 932.15744 486.4 887.6032 462.51008 887.6032zM193.60768 140.544l659.22048 0c50.0224 0 73.64608 39.68 76.12416 81.08032L523.22304 431.57504 96.38912 210.71872C107.01824 169.59488 152.33024 140.544 193.60768 140.544z" /></svg>