<?xml version="1.0" standalone="no"?><!DOCTYPE svg PUBLIC "-//W3C//DTD SVG 1.1//EN" "http://www.w3.org/Graphics/SVG/1.1/DTD/svg11.dtd"><svg class="icon" width="200px" height="200.00px" viewBox="0 0 1024 1024" version="1.1" xmlns="http://www.w3.org/2000/svg"><path  d="M983.74341 312.704249a510.271362 510.271362 0 0 0-109.695863-162.751796A510.271362 510.271362 0 0 0 512 0.00064a510.271362 510.271362 0 0 0-362.047547 149.951813A510.271362 510.271362 0 0 0 0.00064 512a510.207362 510.207362 0 0 0 149.951813 362.047547A510.271362 510.271362 0 0 0 512 1023.99936a510.271362 510.271362 0 0 0 362.047547-149.951813A510.271362 510.271362 0 0 0 1023.99936 512a508.799364 508.799364 0 0 0-40.25595-199.295751z m-57.087928 374.463532a448.639439 448.639439 0 0 1-96.44788 143.039821A448.639439 448.639439 0 0 1 512 962.047437a448.639439 448.639439 0 0 1-318.207602-131.839835A448.639439 448.639439 0 0 1 61.952563 512a448.639439 448.639439 0 0 1 131.839835-318.207602A448.575439 448.575439 0 0 1 512 61.952563a448.575439 448.575439 0 0 1 318.207602 131.839835A448.639439 448.639439 0 0 1 962.047437 512c0 60.799924-11.903985 119.67985-35.391955 175.167781z"  /><path  d="M724.031735 329.920228a34.239957 34.239957 0 0 0-48.447939 0.255999L425.536108 582.911911 314.880246 469.120054a34.303957 34.303957 0 0 0-49.151938 47.80794l135.039831 138.751826c0 0.128 0.192 0.128 0.256 0.192l0.191999 0.256c2.175997 2.175997 4.799994 3.455996 7.359991 4.863994 1.279998 0.767999 2.367997 1.919998 3.775996 2.559997a33.983958 33.983958 0 0 0 25.791967 0c1.279998-0.511999 2.367997-1.663998 3.647996-2.303998 2.559997-1.471998 5.247993-2.751997 7.42399-4.863993l0.192-0.32 0.256-0.192 274.623657-277.503653a34.303957 34.303957 0 0 0-0.256-48.511939z"  /></svg>