<?xml version="1.0" standalone="no"?><!DOCTYPE svg PUBLIC "-//W3C//DTD SVG 1.1//EN" "http://www.w3.org/Graphics/SVG/1.1/DTD/svg11.dtd"><svg class="icon" width="200px" height="200.00px" viewBox="0 0 1024 1024" version="1.1" xmlns="http://www.w3.org/2000/svg"><path  d="M687.675068 414.106436 437.507402 261.32989 437.507402 566.422494ZM937.425226 124.406404 86.599334 124.406404c-9.775644 0-17.768689 7.995091-17.768689 17.746176l0 629.67919c0 9.763364 7.993045 17.756409 17.768689 17.756409l347.380732 0 0 51.236941-77.721129 49.272193c-8.234545 5.248537-7.004531 9.497305 2.769067 9.497305l308.882929 0c9.726525 0 10.954493-4.236488 2.672876-9.388834l-80.056314-50.043766 0-50.573839 346.897731 0c9.751085 0 17.744129-7.993045 17.744129-17.756409L955.169355 142.152581C955.169355 132.401496 947.17631 124.406404 937.425226 124.406404M881.253902 611.659791c0 9.763364-7.993045 17.746176-17.744129 17.746176L160.541393 629.405967c-9.775644 0-17.768689-7.982812-17.768689-17.746176L142.772704 216.10385c0-9.751085 7.993045-17.756409 17.768689-17.756409L863.510796 198.34744c9.751085 0 17.744129 8.006348 17.744129 17.756409L881.254925 611.659791z" /></svg>