<?xml version="1.0" standalone="no"?><!DOCTYPE svg PUBLIC "-//W3C//DTD SVG 1.1//EN" "http://www.w3.org/Graphics/SVG/1.1/DTD/svg11.dtd"><svg class="icon" width="200px" height="200.00px" viewBox="0 0 1024 1024" version="1.1" xmlns="http://www.w3.org/2000/svg"><path  d="M803.84 124.586667h-83.626667c-8.533333-23.893333-32.426667-40.96-59.733333-40.96h-23.893333c-6.826667-29.013333-32.426667-51.2-64.853334-51.2h-109.226666c-30.72 0-58.026667 22.186667-64.853334 51.2h-23.893333c-27.306667 0-49.493333 17.066667-59.733333 40.96h-83.626667c-51.2 0-92.16 37.546667-92.16 85.333333v663.893333c0 47.786667 40.96 85.333333 92.16 85.333334h570.026667c51.2 0 92.16-37.546667 92.16-85.333334V209.92c3.413333-47.786667-37.546667-85.333333-88.746667-85.333333z m-453.973333 13.653333c3.413333-11.946667 15.36-22.186667 27.306666-22.186667h39.253334c5.12 0 8.533333-1.706667 11.946666-5.12 3.413333-3.413333 5.12-8.533333 5.12-13.653333v-1.706667c0-17.066667 13.653333-32.426667 32.426667-32.426666h109.226667c17.066667 0 32.426667 13.653333 32.426666 30.72v3.413333c0 5.12 1.706667 8.533333 5.12 11.946667s8.533333 5.12 11.946667 5.12h39.253333c15.36 0 29.013333 13.653333 29.013334 29.013333s-13.653333 29.013333-29.013334 29.013333H377.173333c-15.36 0-29.013333-11.946667-29.013333-27.306666 0-1.706667 1.706667-3.413333 1.706667-6.826667 0 1.706667 0 1.706667 0 0z m512 735.573333c0 29.013333-25.6 51.2-58.026667 51.2H235.52c-32.426667 0-58.026667-22.186667-58.026667-51.2V209.92c0-29.013333 25.6-51.2 58.026667-51.2h80.213333c5.12 29.013333 30.72 51.2 61.44 51.2h285.013334c30.72 0 56.32-22.186667 61.44-51.2h80.213333c32.426667 0 58.026667 22.186667 58.026667 51.2v663.893333zM757.76 747.52H281.6c-10.24 0-17.066667 6.826667-17.066667 17.066667s6.826667 17.066667 17.066667 17.066666h474.453333c10.24 0 17.066667-6.826667 17.066667-17.066666s-6.826667-17.066667-15.36-17.066667zM431.786667 638.293333c3.413333 3.413333 6.826667 5.12 11.946666 5.12s8.533333-1.706667 11.946667-5.12l302.08-302.08c6.826667-6.826667 6.826667-17.066667 0-23.893333s-17.066667-6.826667-23.893333 0l-290.133334 290.133333-138.24-138.24c-6.826667-6.826667-17.066667-6.826667-23.893333 0s-6.826667 17.066667 0 23.893334l150.186667 150.186666z" /></svg>