<?xml version="1.0" standalone="no"?><!DOCTYPE svg PUBLIC "-//W3C//DTD SVG 1.1//EN" "http://www.w3.org/Graphics/SVG/1.1/DTD/svg11.dtd"><svg class="icon" width="200px" height="200.00px" viewBox="0 0 1024 1024" version="1.1" xmlns="http://www.w3.org/2000/svg"><path d="M914.1 746.9c-3.1-11.7-7.7-22.7-13.6-32.9l25.9-39-0.1-0.1-36.8-36.8-0.1-0.1-39 25.9c-10.2-5.9-21.2-10.5-32.8-13.6l-9.3-45.9h-52.2l-9.3 45.9c-11.6 3.1-22.6 7.7-32.8 13.6L675 638l-0.1 0.1-36.8 36.8-0.1 0.1 25.9 39c-5.9 10.2-10.5 21.2-13.6 32.9l-45.9 9.3v52.2l45.9 9.3c3.1 11.6 7.7 22.7 13.6 32.9l-25.9 39 0.1 0.1 36.8 36.8 0.1 0.1 39-25.9c10.2 5.9 21.2 10.5 32.8 13.6l9.3 45.9h52.2l9.3-45.9c11.6-3.1 22.6-7.7 32.8-13.6l39 25.9 0.1-0.1 36.8-36.8 0.1-0.1-25.9-39c5.9-10.2 10.5-21.2 13.6-32.9l45.9-9.3v-52.2l-45.9-9.3zM782.3 844c-34.1 0-61.7-27.7-61.7-61.8 0-34.1 27.6-61.8 61.7-61.8s61.7 27.7 61.7 61.8c0 34.2-27.6 61.8-61.7 61.8zM583.8 788c0-57.2 19.3-109.8 51.7-151.8-6.5-4.7-11.9-9.3-16.2-13.7-6.7-7-11.4-14-14-21.1-2.6-7.1-3.9-14.2-3.9-21.9 0-7.5 0.3-15.7 0.8-24.6 1.2-14 5.7-24.8 13.5-32.3 7.8-7.5 16.6-15.4 26.7-23.6 4.8-4.1 8.7-9.7 12.3-17.1 3.6-7.3 6.7-14.7 9.6-22.2 2.9-8.7 5.8-17.8 8.7-27 4.1-1.2 8.2-3.1 12.3-6.2 3.6-2.9 7.3-7 11.4-12.3 4.1-5.3 7.5-12.8 10.6-22.7 2.9-9.7 3.9-18.8 2.9-26.7-0.8-7.8-2.4-14.7-4.8-20.5-2.2-6.5-5.8-12.5-10.6-18.5 0.5-22.1-0.5-44.3-3.6-66.5-2.2-18.6-6.5-38.5-12.7-59.5-6.2-21-15-40-26.7-56.8-11.1-15.7-23.4-28.7-37.1-39-13.7-10.2-27.5-18.3-41.5-24.1-14-5.8-28-9.7-42.4-12.3-14.2-2.1-27.9-3.5-41.3-3.5v0.2c-2.2-0.1-4.4-0.2-6.6-0.2-13.5 0-27.3 1.3-41.5 3.6-14.3 2.6-28.3 6.5-42.4 12.3-14 5.8-27.8 13.8-41.5 24.1-13.7 10.2-26 23.2-37.1 39-11.6 16.7-20.5 35.7-26.7 56.8-6.2 21.1-10.4 40.9-12.7 59.5-3.1 22.2-4.1 44.5-3.6 66.5-4.8 6-8.3 12-10.6 18.5-2.4 5.8-3.9 12.7-4.8 20.5-1 7.9 0 16.9 2.9 26.7 3.1 9.9 6.5 17.4 10.6 22.7 4.1 5.3 7.8 9.4 11.4 12.3 4.1 3.1 8.2 5 12.3 6.2 2.9 9.2 5.8 18.3 8.7 27 2.9 7.5 6 14.9 9.6 22.2 3.6 7.3 7.5 13 12.3 17.1 10.1 8.2 18.8 16.1 26.7 23.6 7.8 7.5 12.3 18.3 13.5 32.3 0.5 8.9 0.8 17.1 0.8 24.6 0 7.7-1.3 14.9-3.9 21.9-2.6 7-7.3 14-14 21.1-6.7 7-16.1 14.3-28.3 21.9-15.1 9.9-32.7 17.4-52.8 22.7-20.2 5.3-108 35.6-127 42.1-18.8 6.3-35.4 15.1-49.4 26.2-13.8 10.9-22.6 27.4-26.2 48.9-5.8 37.3-7 43.3-3.9 67.2 3.1 23.7 7.8 38 14.3 42.7 5.3 3.9 20.3 8.7 45.5 14.4 25 5.6 182.1 35.2 364.8 35.4v-0.1c50.7-0.3 99.2-2.8 143.4-6.4-31-41.7-49.5-93.5-49.5-149.6z" /></svg>