<?xml version="1.0" standalone="no"?><!DOCTYPE svg PUBLIC "-//W3C//DTD SVG 1.1//EN" "http://www.w3.org/Graphics/SVG/1.1/DTD/svg11.dtd"><svg class="icon" width="200px" height="200.00px" viewBox="0 0 1024 1024" version="1.1" xmlns="http://www.w3.org/2000/svg"><path d="M139.3152 676.78208c79.01696-27.08992 121.18016-41.00096 136.70912-45.07648 15.70816-4.13184 29.09696-9.79968 39.79264-16.84992l0.85504-0.55296 0.8704-0.53248c11.27424-6.89664 16.58368-11.74016 18.75456-14.01344 1.05984-1.11616 1.78176-1.9712 2.26816-2.59584a58.33216 58.33216 0 0 1-4.43904-18.80064 88.24832 88.24832 0 0 1 0.01024-10.40896 410.51648 410.51648 0 0 0-17.38752-14.99648l-0.59392-0.49152-0.57856-0.49152c-11.30496-9.7024-20.5312-22.05184-28.19584-37.74464-4.28032-8.77056-8.2432-17.9456-12.47232-28.89728l-0.50176-1.30048-0.44032-1.32608c-0.80896-2.41664-1.62816-4.9152-2.4832-7.51104l-0.45568-0.34304-0.87552-0.71168c-7.40352-5.99552-14.63296-13.60384-22.10304-23.24992-8.90368-11.49952-15.68768-25.35936-21.3504-43.61728l-0.09728-0.31744-0.09728-0.32256c-5.54496-18.58048-7.30624-36.44416-5.24288-53.12 1.51552-13.58336 4.34176-25.51296 8.62208-36.3776a115.65056 115.65056 0 0 1 7.61344-16.78336c0.24576-21.38112 1.75104-42.25024 4.49536-62.2592 2.48832-20.59264 7.0144-42.752 13.43488-65.94048a161.55648 161.55648 0 0 0-8.62208-0.24576c-10.69568 0-21.66272 1.08032-32.90112 2.8416a160.9728 160.9728 0 0 0-33.57696 9.74848c-11.10016 4.60288-22.0672 10.96704-32.90112 19.09248-10.8288 8.12544-20.57728 18.41664-29.37856 30.86336-9.20576 13.27104-16.24576 28.29824-21.12 44.94848s-8.25856 32.3584-10.01984 47.11936c-2.43712 17.59744-3.24608 35.2-2.8416 52.66432-3.7888 4.736-6.63552 9.47712-8.39168 14.6176-1.8944 4.60288-3.11296 10.01984-3.7888 16.24576-0.81408 6.23616 0 13.40416 2.29888 21.12 2.43712 7.84896 5.1456 13.80864 8.39168 18.01216 3.2512 4.18816 6.23104 7.44448 9.07264 9.74336a29.71136 29.71136 0 0 0 9.74848 4.87424c2.304 7.31648 4.60288 14.4896 6.90688 21.39648a220.61568 220.61568 0 0 0 7.58272 17.60256c2.8416 5.82144 5.95456 10.2912 9.74848 13.5424a348.18048 348.18048 0 0 1 21.12 18.68288c6.23104 5.95456 9.74848 14.48448 10.69568 25.58976 0.40448 7.03488 0.67584 13.53728 0.67584 19.49696a49.664 49.664 0 0 1-3.11296 17.3312c-2.02752 5.55008-5.82144 11.10016-11.10016 16.65024-5.28384 5.56032-12.72832 11.38176-22.4768 17.33632-11.91424 7.84384-25.86112 13.80352-41.83552 18.01216-11.49952 3.02592-50.77504 16.28672-77.4912 25.3952v172.92288c1.23904 0.20992 2.49856 0.4096 3.78368 0.61952 1.01376-10.0096 2.75968-21.21728 5.11488-36.27008l0.68096-4.36736 0.04608-0.3072 0.0512-0.3072c8.00768-48.06144 31.80544-75.62752 50.28864-90.21952 20.48-16.24064 44.5952-29.10208 71.68-38.2208l5.56032-1.89952zM978.90816 649.56416c-13.54752-3.3792-26.26048-7.43936-37.77024-12.04736-12.4672-5.15072-22.4768-10.83904-29.78816-17.33632-7.43936-6.50752-12.71808-13.40416-15.96928-20.44416s-5.15072-14.35136-5.55008-21.39136c-0.4096-7.17824 0-14.208 1.35168-21.12 0.79872-4.89472 2.21184-9.67168 4.1984-14.21824a33.09568 33.09568 0 0 1 6.90176-10.01984c2.85696-2.69824 5.95968-5.41696 9.74848-7.84896a108.3904 108.3904 0 0 0 11.78112-9.33376c3.6608-3.2512 6.91712-7.72096 10.01984-13.5424a203.1616 203.1616 0 0 0 7.84896-17.60256c2.29888-6.76864 4.46976-14.08 6.23104-21.39136 4.59776-1.36192 8.92928-3.79392 13.12768-7.58272 3.6608-3.2512 6.912-7.72096 10.01984-13.5424 2.8416-5.82656 5.15072-13.40416 6.5024-23.15264 0.95744-7.44448 0.80896-13.5424-0.27136-18.67776a45.39904 45.39904 0 0 0-4.46976-12.46208c-1.76128-3.78368-4.33152-6.63552-7.5776-8.39168a317.60384 317.60384 0 0 0-3.52256-55.3728c-2.17088-15.70304-6.23104-32.35328-12.05248-50.08896a159.8976 159.8976 0 0 0-25.99936-48.74752c-5.14048-6.49728-11.78112-12.86144-20.16768-19.08736-8.12032-6.23104-17.7408-11.78624-28.29824-16.93184-10.69056-5.1456-22.07232-9.20576-34.24256-12.45696-12.19072-3.24608-25.18016-4.87424-38.45632-4.87424-5.5808 0-11.23328 0.3072-16.96256 0.83968 6.25664 21.41184 10.68032 41.51808 13.3888 60.99456 3.1232 20.52096 4.93568 41.22112 5.4272 61.97248 1.45408 2.36032 2.80064 4.80768 4.04992 7.3472a123.47904 123.47904 0 0 1 11.27424 31.78496c2.9184 13.89056 3.30752 28.78464 1.17248 45.53216l-0.04096 0.3328-0.0512 0.32768c-2.61632 18.80576-7.45984 35.57376-14.41792 49.82784l-0.49152 0.98816-0.51712 0.96256c-7.71072 14.4128-16.4096 25.84576-26.59328 34.93888-2.29888 2.06336-4.64896 4.01408-7.05024 5.85216-0.91648 2.8928-1.85856 5.7856-2.85696 8.68352l-0.38912 1.16736-0.45056 1.152a339.70688 339.70688 0 0 1-13.07648 29.34272l-0.36352 0.74752-0.39936 0.74752c-7.70048 14.40256-16.384 25.80992-26.55744 34.88256-4.608 4.1728-9.40032 8.1408-14.3616 11.89888 0.34816 6.41024 0.57856 12.3904 0.57856 17.87904a49.83808 49.83808 0 0 1-3.10784 17.3312 37.11488 37.11488 0 0 1-2.49344 5.32992c0.512 0.48128 1.04448 0.97792 1.65376 1.5104l0.20992 0.1792 0.20992 0.18944c2.58048 2.29376 9.07776 7.04 23.74656 13.12256 13.2608 5.28384 28.02176 9.97376 43.88352 13.94176l0.19968 0.05632 0.20992 0.0512c9.2416 2.3808 23.14752 7.42912 44.61056 15.98976h1.36704c0.48128 0.36864 0.93696 0.7424 1.39264 1.11104 12.60032 5.03808 27.67872 11.2384 45.7984 18.7392 10.62912 4.39808 20.66944 8.56064 24.93952 10.20928 22.46144 8.69888 42.80832 19.73248 60.48256 32.80896l1.56672 1.152 1.47968 1.24928c21.82144 18.44224 37.46304 40.96 46.51008 66.91328l0.12288 0.37888 0.128 0.37376c4.54144 13.62944 7.81824 29.97248 9.73824 48.57856 2.11968 7.41888 2.52928 14.17728 2.6112 20.4288 0.95232-0.16896 1.87904-0.34816 2.81088-0.53248v-183.36768c-17.63328-7.1936-35.8656-14.44352-42.97728-16.2816z"  /><path d="M950.02112 799.6416c-5.77024-16.55808-15.44192-29.76768-28.65152-40.92928-13.57824-10.05056-29.2096-18.42176-46.52032-25.11872-17.30048-6.70208-92.66176-39.07072-111.44192-43.90912-18.6112-4.64896-36.10112-10.22976-51.92704-16.55808-17.11104-7.07072-30.8736-14.87872-40.92416-23.808-10.22976-8.92928-17.48992-18.42176-21.94944-28.08832-4.46976-9.68192-7.07072-19.73248-7.6288-29.39904-0.55808-9.86112 0-19.53792 1.85856-29.02016 1.30048-7.6288 3.34336-14.14144 5.77024-19.53792a45.10208 45.10208 0 0 1 9.48224-13.76768c3.91168-3.72224 8.192-7.43936 13.39904-10.78784 5.21216-3.52256 10.4192-7.62368 16.18944-12.83584 5.01248-4.45952 9.49248-10.5984 13.76256-18.60608a279.71584 279.71584 0 0 0 10.78272-24.192 341.40672 341.40672 0 0 0 8.56576-29.39392c6.3232-1.86368 12.27264-5.21728 18.04288-10.4192 5.0176-4.46464 9.49248-10.60864 13.76768-18.60608 3.90144-8.00256 7.07072-18.42688 8.92928-31.8208 1.30048-10.23488 1.11104-18.60608-0.37888-25.6768-1.47968-7.07072-3.72224-12.65152-6.13888-17.11616-2.42176-5.21728-5.94944-9.11872-10.40896-11.53536 0.54784-25.30304-0.94208-50.7904-4.83328-76.09856-2.97984-21.5808-8.56576-44.4672-16.55808-68.8384a219.47904 219.47904 0 0 0-35.72224-66.98496c-7.08608-8.92416-16.18944-17.66912-27.72992-26.23488-11.16672-8.55552-24.37632-16.18432-38.89664-23.25504-14.68928-7.07072-30.32064-12.65152-47.06304-17.11616s-34.59584-6.7072-52.83328-6.7072c-14.6944 0-29.76256 1.48992-45.21472 3.90656-15.63136 2.7904-30.87872 7.0656-46.13632 13.39392s-30.32576 15.04768-45.2096 26.2144c-14.88384 11.1616-28.28288 25.29792-40.37632 42.42432-12.65152 18.23232-22.32832 38.8864-29.02528 61.76256-6.69696 22.8864-11.34592 44.47232-13.76768 64.74752-3.3536 24.18688-4.46976 48.37376-3.90656 72.38144-5.21216 6.50752-9.11872 13.02016-11.53536 20.09088-2.60608 6.3232-4.28032 13.76768-5.21216 22.32832-1.11616 8.55552 0 18.42176 3.16416 29.02528 3.34848 10.78784 7.07072 18.97984 11.53536 24.74496 4.46464 5.76512 8.56064 10.23488 12.4672 13.39904a41.27744 41.27744 0 0 0 13.39904 6.69696c3.08224 9.82528 6.2464 19.62496 9.49248 29.39904a304.73216 304.73216 0 0 0 10.4192 24.18688c3.90656 8.00256 8.18688 14.15168 13.39904 18.6112a471.48032 471.48032 0 0 1 29.02528 25.68704c8.56064 8.18176 13.39904 19.91168 14.69952 35.15904 0.55808 9.67168 0.93184 18.6112 0.93184 26.78784 0 8.38144-1.48992 16.1792-4.2752 23.808s-8.00256 15.25248-15.2576 22.89152c-7.25504 7.6288-17.48992 15.63136-30.88896 23.808-16.37376 10.78784-35.53792 18.97984-57.49248 24.75008s-117.59104 38.70208-138.24 45.76256c-20.46464 6.89152-38.51264 16.37888-53.77024 28.48256-15.06816 11.89888-24.56064 29.76256-28.4672 53.21216-6.3232 40.56064-7.6288 47.06816-4.2752 73.11872 3.34848 25.86112 8.55552 41.30816 15.62624 46.52032 5.77024 4.28032 22.144 9.49248 49.49504 15.63136 27.35104 6.13888 199.2704 38.50752 398.91456 38.50752 218.43968 0 373.80096-44.27776 388.67968-49.48992 14.88896-5.21216 24.00256-9.86112 27.17184-14.33088 4.28032-6.88128 7.6288-16.93184 9.86112-30.33088 2.048-13.3888 3.15904-27.53024 3.15904-42.4192 0-14.87872-0.7424-2.9696-2.23232-17.85856-1.5104-14.87872-3.9424-27.1616-7.10144-36.64896z m-371.93216 91.34592c-4.64896 5.59104-10.24 11.35104-16.55808 17.12128-6.32832 5.77024-12.84096 10.4192-19.53792 14.68928-6.70208 4.11136-11.54048 6.14912-14.6944 6.14912-2.9696 0-7.808-2.24256-14.32576-5.95968a179.39968 179.39968 0 0 1-19.53792-14.69952 134.87616 134.87616 0 0 1-17.11104-17.11104c-4.8384-5.77024-7.07584-10.24-7.07584-13.39904 0-5.21216 0.93696-12.84096 3.16416-23.26016 2.24256-10.40896 4.8384-21.5808 7.6288-33.31072a591.616 591.616 0 0 1 8.92928-33.84832c2.42688-8.28928 4.97152-16.5376 7.6288-24.75008a106.47552 106.47552 0 0 1-17.48992-18.048c-4.8384-6.31808-7.07072-11.35104-7.07072-15.2576 0-5.20192 1.66912-10.04032 4.83328-15.25248a69.60128 69.60128 0 0 1 10.41408-13.39904c4.46976-4.45952 9.86624-8.91904 16.18944-13.3888h47.45216c5.77024 4.45952 10.9824 8.92928 16.18944 13.3888 4.45952 3.91168 8.56064 8.38144 11.89888 13.76768 3.5328 5.4016 5.21216 10.4192 5.21216 15.63136 0 6.32832-2.23744 12.47232-6.69184 18.6112-4.46976 5.94944-9.87648 11.35104-16.18944 16.55808 1.85344 7.07072 4.28032 16 6.70208 27.1616 2.42176 11.17184 5.21216 22.32832 7.6288 33.8688 2.41152 11.1616 4.82304 21.77024 6.69184 31.25248 1.85856 9.68192 2.7904 16.18944 2.7904 20.10112 0 3.34848-2.2272 7.61856-7.07072 13.38368z"  /></svg>