<?xml version="1.0" standalone="no"?><!DOCTYPE svg PUBLIC "-//W3C//DTD SVG 1.1//EN" "http://www.w3.org/Graphics/SVG/1.1/DTD/svg11.dtd"><svg class="icon" width="200px" height="200.00px" viewBox="0 0 1024 1024" version="1.1" xmlns="http://www.w3.org/2000/svg"><path  d="M865.694403 845.008964l-12.862778 0 0-26.045526c0-40.700133-33.020863-73.720997-73.720997-73.720997-40.508152 0-73.465021 33.020863-73.465021 73.720997l0 26.045526-12.862778 0c-8.511191 0-15.230553 6.783356-15.230553 15.230553l0 120.372566c0 8.383203 6.719362 15.230553 15.230553 15.230553l172.975569 0c8.383203 0 15.230553-6.84735 15.230553-15.230553l0-120.372566C880.924955 851.792319 874.077607 845.008964 865.694403 845.008964zM725.611709 818.899444c0-29.693179 24.125709-53.690901 53.498919-53.690901 29.629186 0 53.626907 23.997721 53.626907 53.690901l0 26.045526-107.125824 0L725.611709 818.899444zM632.628542 978.180314l0-120.372566c0-21.501958 11.390917-40.508152 28.477295-51.131143 0.511951-5.37549 1.599848-10.558996 2.751739-15.67851-5.631465-7.103325-10.111039-14.718601-12.030857-23.997721-7.487289-37.308456-3.519666-67.385599-3.519666-106.101921 0-7.807259 6.975338-18.558238 9.343112-23.677752 14.846589-31.612997 29.245222-63.609958 44.219799-95.158961 4.991526-10.431009 9.727075-22.333879 17.854305-29.565192 33.980772-29.821167 43.25989-78.904505 22.653849-119.604639-4.095611-8.447197-4.863538-20.798025-2.495763-30.141137 15.870492-61.882122 25.021623-124.532171 15.870492-188.142128-8.383203-58.810414-36.348547-103.734147-97.334754-122.42037-13.118753-4.031617-24.381684-14.398632-37.244462-20.286074-22.525861-10.367015-44.73175-24.701653-68.473496-28.221319-48.63538-7.103325-97.334754-4.095611-145.138213 11.582899-66.105721 21.821928-107.893751 65.401788-127.091928 132.275436-20.478055 71.993162-8.255215 142.64245 4.991526 213.739697 1.855824 10.303021 0.767927 23.101806-3.775641 32.380924-20.478055 41.596048-10.367015 91.06335 25.469581 120.628542 6.655368 5.37549 12.350826 14.014668 14.398632 22.205891 8.767167 36.988487 24.125709 70.521302 46.267605 101.366372 5.887441 8.127227 10.750978 19.070189 11.26293 28.925252 1.279878 26.621471 1.47186 53.434925-1.279878 79.864413-1.343872 14.142656-6.399392 31.996961-16.254456 40.380164-25.149611 20.798025-52.347027 40.188183-81.464261 54.65081-50.875167 25.085617-104.886036 43.643854-155.505228 69.177429-38.012389 19.070189-68.85746 44.475775-91.127344 76.856699l0 36.284554 621.444969 0C641.587691 1012.929013 632.628542 996.802545 632.628542 978.180314zM925.848689 925.513317l0 52.666997c0 18.622232-9.023142 34.684705-22.525861 45.691659l87.095727 0 0-37.308456C973.20419 961.541894 950.806318 942.023749 925.848689 925.513317z" /></svg>