<?xml version="1.0" standalone="no"?><!DOCTYPE svg PUBLIC "-//W3C//DTD SVG 1.1//EN" "http://www.w3.org/Graphics/SVG/1.1/DTD/svg11.dtd"><svg class="icon" width="200px" height="200.00px" viewBox="0 0 1024 1024" version="1.1" xmlns="http://www.w3.org/2000/svg"><path d="M567.2 63H118.8C88.1 63 63 88.1 63 118.8v784.4c0 30.7 25.1 55.8 55.8 55.8h448.4c30.7 0 55.8-25.1 55.8-55.8V118.8c0-30.7-25.1-55.8-55.8-55.8zM377.9 847h-69.8c-11.7 0-21.1-9.4-21.1-21.1v-69.8c0-11.7 9.4-21.1 21.1-21.1h69.8c11.7 0 21.1 9.4 21.1 21.1v69.8c0 11.7-9.4 21.1-21.1 21.1zM511 623H175v-56h336v56z m0-168H175v-56h336v56z m0-168H175v-56h336v56zM735 231h-56v693.3c0 19.1-15.6 34.7-34.7 34.7H735c30.8 0 56-25.2 56-56V287c0-30.8-25.2-56-56-56zM903 399h-56v525.3c0 19.1-15.6 34.7-34.7 34.7H903c30.8 0 56-25.2 56-56V455c0-30.8-25.2-56-56-56z"  /></svg>