<?xml version="1.0" standalone="no"?><!DOCTYPE svg PUBLIC "-//W3C//DTD SVG 1.1//EN" "http://www.w3.org/Graphics/SVG/1.1/DTD/svg11.dtd"><svg class="icon" width="200px" height="200.00px" viewBox="0 0 1024 1024" version="1.1" xmlns="http://www.w3.org/2000/svg"><path d="M838.912 391.488l-84.992-88.32-71.168-68.16L675.968 228.48 512.96 65.536 64.832 513.664l81.472 0 0 448.192 101.696 0L248 595.2l522.688 0 0 366.656 108.992 0L879.68 513.664l81.472 0L838.912 391.488zM567.424 815.552c-0.448 0-12.736 0-27.264 0-14.592 0-18.048-8.448-7.744-18.752 10.304-10.304 19.008-19.008 19.328-19.264 0.32-0.32 0.32-0.832 0-1.152-0.32-0.32-8.576-8.64-18.432-18.432C523.456 748.16 515.2 739.84 514.88 739.52c-0.32-0.32-0.832-0.32-1.152 0-0.32 0.32-9.024 9.024-19.328 19.328s-18.688 6.784-18.688-7.744c0-14.528 0-26.816 0-27.264 0-0.448-0.384-0.832-0.832-0.832-0.448 0-12.16 0-26.048 0-13.888 0-25.6 0-26.048 0-0.448 0-0.832 0.384-0.832 0.832 0 0.448 0 12.736 0 27.264 0 14.592-8.448 18.048-18.688 7.744-10.304-10.304-19.008-19.008-19.264-19.328-0.32-0.32-0.832-0.32-1.152 0-0.32 0.32-8.576 8.64-18.432 18.432-9.792 9.792-18.112 18.112-18.432 18.432-0.32 0.32-0.32 0.832 0 1.152 0.32 0.32 9.024 9.024 19.328 19.264 10.304 10.304 6.784 18.752-7.744 18.752-14.592 0-26.816 0-27.264 0-0.448 0-0.832 0.384-0.832 0.832 0 0.448 0 12.16 0 26.048 0 13.888 0 25.6 0 26.048 0 0.448 0.384 0.832 0.832 0.832 0.448 0 12.736 0 27.264 0 14.592 0 18.048 8.448 7.744 18.752-10.304 10.304-18.944 18.944-19.264 19.264-0.32 0.32-0.32 0.832 0 1.152 0.32 0.32 8.576 8.64 18.432 18.432 9.792 9.792 18.112 18.112 18.432 18.432 0.32 0.32 0.832 0.32 1.152 0 0.32-0.32 9.024-9.024 19.328-19.328 10.304-10.304 18.688-6.784 18.688 7.744 0 14.592 0 26.88 0 27.264 0 0.448 0.384 0.832 0.832 0.832 0.448 0 12.16 0 26.048 0 13.888 0 25.6 0 26.048 0 0.448 0 0.832-0.384 0.832-0.832 0-0.448 0-12.736 0-27.264 0-14.592 8.448-18.048 18.688-7.744 10.304 10.304 19.008 19.008 19.328 19.328 0.32 0.32 0.832 0.32 1.152 0 0.32-0.32 8.576-8.576 18.432-18.432 9.792-9.792 18.112-18.112 18.432-18.432 0.32-0.32 0.32-0.832 0-1.152-0.32-0.32-9.024-9.024-19.328-19.264-10.304-10.304-6.784-18.752 7.744-18.752 14.528 0 26.816 0 27.264 0 0.448 0 0.832-0.384 0.832-0.832 0-0.448 0-12.16 0-26.048 0-13.888 0-25.6 0-26.048C568.256 815.936 567.872 815.552 567.424 815.552zM450.624 881.664c-22.144 0-40.128-17.984-40.128-40.128 0-22.144 17.984-40.128 40.128-40.128 22.144 0 40.128 17.984 40.128 40.128C490.688 863.744 472.768 881.664 450.624 881.664zM647.616 689.472c-0.256 0-6.336 0-13.632 0-7.296 0-9.024-4.224-3.84-9.344 5.12-5.12 9.472-9.472 9.664-9.664 0.128-0.128 0.128-0.384 0-0.576-0.128-0.128-4.288-4.288-9.216-9.216-4.928-4.928-9.024-9.024-9.216-9.216-0.192-0.128-0.448-0.128-0.576 0-0.192 0.128-4.48 4.48-9.664 9.664-5.12 5.12-9.344 3.392-9.344-3.84 0-7.296 0-13.44 0-13.632 0-0.256-0.192-0.384-0.384-0.384-0.256 0-6.08 0-12.992 0-6.912 0-12.8 0-12.992 0-0.256 0-0.384 0.192-0.384 0.384 0 0.256 0 6.336 0 13.632 0 7.296-4.224 9.024-9.344 3.904-5.12-5.184-9.472-9.472-9.664-9.664-0.192-0.128-0.448-0.128-0.576 0-0.128 0.128-4.288 4.288-9.216 9.216C541.248 665.6 537.152 669.696 536.96 669.888c-0.128 0.128-0.128 0.448 0 0.576 0.128 0.192 4.48 4.48 9.664 9.664 5.12 5.12 3.392 9.344-3.904 9.344-7.296 0-13.376 0-13.632 0-0.256 0-0.384 0.192-0.384 0.384 0 0.256 0 6.08 0 12.992 0 6.912 0 12.8 0 12.992 0 0.256 0.192 0.384 0.384 0.384 0.256 0 6.336 0 13.632 0 7.296 0 9.024 4.224 3.904 9.344-5.12 5.12-9.472 9.472-9.664 9.664-0.128 0.192-0.128 0.448 0 0.576 0.128 0.192 4.288 4.288 9.216 9.216 4.928 4.864 9.024 9.024 9.216 9.216 0.192 0.128 0.448 0.128 0.576 0 0.128-0.192 4.48-4.48 9.664-9.664 5.12-5.12 9.344-3.392 9.344 3.904 0 7.296 0 13.44 0 13.632 0 0.256 0.192 0.384 0.384 0.384 0.256 0 6.08 0 12.992 0 6.912 0 12.8 0 12.992 0s0.384-0.192 0.384-0.384c0-0.192 0-6.336 0-13.632 0-7.296 4.224-9.024 9.344-3.904 5.12 5.12 9.472 9.472 9.664 9.664 0.128 0.128 0.448 0.128 0.576 0 0.128-0.192 4.288-4.288 9.216-9.216 4.928-4.928 9.024-9.024 9.216-9.216 0.128-0.192 0.128-0.448 0-0.576-0.128-0.128-4.48-4.48-9.664-9.664-5.12-5.12-3.392-9.344 3.904-9.344 7.296 0 13.44 0 13.632 0 0.192 0 0.384-0.192 0.384-0.384 0-0.256 0-6.08 0-12.992 0-6.912 0-12.8 0-12.992C648 689.664 647.808 689.472 647.616 689.472zM603.456 717.376c-7.808 7.808-20.48 7.808-28.352 0-7.808-7.808-7.808-20.544 0-28.352 7.808-7.808 20.48-7.808 28.352 0C611.264 696.832 611.264 709.568 603.456 717.376z" /></svg>